<svg width="747" height="756" viewBox="0 0 747 756" fill="none" xmlns="http://www.w3.org/2000/svg">
<path fill-rule="evenodd" clip-rule="evenodd" d="M200.073 754.004C194.209 750.739 189.51 744.311 185.976 734.72C174.496 709.464 168.756 663.544 168.756 596.96C168.756 532.672 169.904 458.817 172.2 375.396C172.965 348.609 173.348 307.281 173.348 251.412L169.904 246.82H42.476C32.5267 246.82 24.4907 241.463 18.368 230.748C13.0107 219.268 8.80133 203.579 5.74 183.68C1.91333 160.72 0 127.811 0 84.952V68.88C0 61.2267 0.382666 55.104 1.148 50.512V22.96C1.148 18.368 3.444 14.5414 8.036 11.4801C12.628 7.65335 17.9853 4.97467 24.108 3.44402C31.7613 1.14801 43.2413 0 58.548 0H145.796C164.929 0 179.471 0.382685 189.42 1.14805L231.896 2.29604H645.176C675.024 2.29604 694.54 2.6787 703.724 3.44402C707.551 4.20935 712.908 4.97467 719.796 5.73999C726.684 6.50536 731.659 8.03603 734.72 10.332C740.077 12.628 743.139 15.6894 743.904 19.516C745.435 22.5774 746.2 27.552 746.2 34.44V223.86C746.2 232.279 742.756 238.019 735.868 241.08C731.276 242.611 725.153 243.376 717.5 243.376H642.88C625.277 243.376 611.884 242.611 602.7 241.08H568.26C561.372 241.08 557.545 242.611 556.78 245.672C556.78 246.437 556.397 247.585 555.632 249.116C554.867 249.881 554.484 251.029 554.484 252.56V308.812C554.484 320.292 554.101 329.093 553.336 335.216C553.336 357.411 551.805 406.009 548.744 481.012L546.448 515.452C544.917 547.596 543.387 570.939 541.856 585.48V694.54C541.856 720.561 536.499 737.016 525.784 743.904C515.835 747.731 508.947 750.027 505.12 750.792L484.322 751.624L387.794 485.794H297.846L200.073 754.004ZM403.313 754.331L292.74 755.384C289.416 755.55 285.515 755.698 281.036 755.828L292.672 720.614H392.172L403.313 754.331ZM342.422 570.17L372.67 660.914H312.572L342.422 570.17Z" fill="#1A1423"/>
</svg>
